HIERARCHY
ROOT Hips
{
	OFFSET 0.000000 0.000000 0.000000 
	CHANNELS 6 Xposition Yposition Zposition Yrotation Zrotation Xrotation 
	JOINT Lumbar
	{
		OFFSET 0.000000 0.000000 0.000000 
		CHANNELS 3 Zrotation Xrotation Yrotation
		JOINT Neck
		{
			OFFSET 0.000000 0.445665 0.000000 
			CHANNELS 3 Zrotation Xrotation Yrotation
			End Site
			{
				OFFSET 0.000000 0.227535 0.000000 
			}
		}
		JOINT RightShoulder
		{
			OFFSET 0.019635 0.377685 0.194865 
			CHANNELS 3 Zrotation Xrotation Yrotation
			JOINT RightElbow
			{
				OFFSET 0.000000 -0.243375 0.000000 
				CHANNELS 2 Zrotation Yrotation
				JOINT RightWrist
				{
					OFFSET 0.000000 -0.264825 0.000000 
					CHANNELS 2 Zrotation Xrotation
					End Site
					{
						OFFSET 0.006600 -0.176220 0.000990 
					}
				}
			}
		}
		JOINT LeftShoulder
		{
			OFFSET 0.019635 0.377685 -0.194865 
			CHANNELS 3 Zrotation Xrotation Yrotation
			JOINT LeftElbow
			{
				OFFSET 0.000000 -0.243375 0.000000 
				CHANNELS 2 Zrotation Yrotation
				JOINT LeftWrist
				{
					OFFSET 0.000000 -0.264825 0.000000 
					CHANNELS 2 Zrotation Xrotation
					End Site
					{
						OFFSET 0.006600 -0.176220 -0.000990 
					}
				}
			}
		}
	}
	JOINT RightHip
	{
		OFFSET 0.052140 -0.069960 0.075570 
		CHANNELS 3 Zrotation Xrotation Yrotation
		JOINT RightKnee
		{
			OFFSET 0.000000 -0.402270 0.000000 
			CHANNELS 1 Zrotation
			JOINT RightAnkle
			{
				OFFSET 0.000000 -0.404085 0.000000 
				CHANNELS 3 Zrotation Xrotation Yrotation
				End Site
				{
					OFFSET 0.204105 -0.089430 0.008415 
				}
			}
		}
	}
	JOINT LeftHip
	{
		OFFSET 0.052140 -0.069960 -0.075570 
		CHANNELS 3 Zrotation Xrotation Yrotation
		JOINT LeftKnee
		{
			OFFSET 0.000000 -0.402270 0.000000 
			CHANNELS 1 Zrotation
			JOINT LeftAnkle
			{
				OFFSET 0.000000 -0.404085 0.000000 
				CHANNELS 3 Zrotation Xrotation Yrotation
				End Site
				{
					OFFSET 0.204105 -0.089430 -0.008415 
				}
			}
		}
	}
}
MOTION
Frames: 13
Frame Time: 0.02
0.02193 -0.00564 -0.00043 -125.54887 -25.75971 -4.22183 37.0161 3.53844 -14.7169 -17.50997 9.68892 -0.59902 -12.8402 -16.21374 -2.62901 32.92156 98.70967 0.73666 7.93077 -14.41248 21.94616 -15.87835 53.52263 -82.78878 -0.98989 -0.24921 41.87683 -5.45992 13.19104 -20.37612 -9.34007 -1.50409 -1.44505 25.21894 8.76255 -5.57562 -27.09648 -7.87645 5.08021 3.36991
0.03026 -0.00508 -0.00298 -126.45515 -25.92624 -4.38353 37.06937 3.36064 -14.58366 -17.42503 9.17486 -0.59974 -13.43288 -15.8305 -2.18802 32.73623 98.50037 1.05351 7.51493 -14.5332 22.03436 -15.78105 52.62481 -83.00124 -0.83803 -0.26088 42.38597 -5.50052 11.6025 -20.30601 -9.50835 -1.62398 -1.5247 25.8291 8.85444 -4.18599 -27.27727 -7.79551 4.95887 3.30648
0.03857 -0.00452 -0.00552 -127.35897 -26.09196 -4.54483 37.1222 3.18328 -14.4506 -17.34052 8.6617 -0.60046 -14.02536 -15.44851 -1.74699 32.55224 98.28971 1.36934 7.09949 -14.65372 22.1216 -15.68285 51.72723 -83.21289 -0.68674 -0.27266 42.89262 -5.54072 10.01869 -20.23648 -9.676 -1.74332 -1.60399 26.43737 8.94574 -2.80132 -27.45726 -7.71495 4.83805 3.24333
0.04688 -0.00397 -0.00806 -128.26254 -26.25794 -4.70605 37.17525 3.00601 -14.31776 -17.25586 8.14911 -0.60118 -14.61646 -15.06646 -1.30712 32.36758 98.08066 1.6852 6.68476 -14.77407 22.20943 -15.58571 50.83176 -83.42467 -0.53534 -0.2842 43.40006 -5.58114 8.435 -20.16665 -9.84375 -1.86281 -1.68338 27.04567 9.03729 -1.41607 -27.63745 -7.63429 4.71711 3.18011
0.05521 -0.00341 -0.0106 -129.16839 -26.42483 -4.86762 37.22886 2.82833 -14.18479 -17.17075 7.63588 -0.60189 -15.20722 -14.68316 -0.86784 32.18137 97.87389 2.00208 6.27002 -14.89461 22.29843 -15.48979 49.93705 -83.63733 -0.38338 -0.29591 43.91026 -5.62208 6.84666 -20.09608 -10.01214 -1.98293 -1.76316 27.65583 9.12956 -0.02564 -27.81852 -7.55319 4.59558 3.11659
0.06349 -0.00285 -0.01314 -130.06787 -26.58805 -5.02834 37.28008 2.65166 -14.05152 -17.0875 7.12292 -0.60265 -15.8033 -14.30395 -0.42317 32.00211 97.65518 2.31568 5.85319 -15.01513 22.38194 -15.38673 49.03353 -83.84687 -0.23354 -0.30804 44.40939 -5.66072 5.27248 -20.02873 -10.17822 -2.10064 -1.84142 28.26004 9.2188 1.34682 -27.99626 -7.47377 4.47624 3.0542
0.07185 -0.0023 -0.01569 -130.97929 -26.75853 -5.19062 37.336 2.47317 -13.91911 -17.00053 6.60996 -0.60331 -16.38782 -13.91689 0.01021 31.80885 97.46027 2.63555 5.44082 -15.13536 22.47651 -15.29848 48.14863 -84.06239 -0.07946 -0.31841 44.93036 -5.7039 3.67155 -19.95505 -10.34881 -2.22301 -1.92264 28.87567 9.31404 2.75393 -28.18047 -7.39107 4.35267 2.98962
0.08014 -0.00174 -0.01822 -131.87948 -26.9222 -5.3514 37.38766 2.29633 -13.78571 -16.91711 6.09705 -0.60406 -16.9834 -13.53714 0.4539 31.62891 97.24426 2.94962 5.02473 -15.25624 22.56069 -15.196 47.24674 -84.27249 0.07045 -0.33206 45.43101 -5.743 2.09529 -19.88705 -10.51516 -2.34118 -2.00119 29.48057 9.40373 4.12911 -28.35878 -7.31136 4.23295 2.92704
0.08835 -0.00118 -0.02077 -132.76722 -27.07804 -5.51068 37.43378 2.12153 -13.65179 -16.83757 5.58369 -0.60492 -17.59145 -13.16589 0.91104 31.4637 96.99865 3.25678 4.60221 -15.37648 22.63281 -15.07815 46.32252 -84.47569 0.21636 -0.34318 45.90758 -5.77663 0.54847 -19.82666 -10.67668 -2.45386 -2.07625 30.07337 9.4867 5.46561 -28.52963 -7.23544 4.11809 2.86699
0.09703 -0.00064 -0.02331 -133.7305 -27.28041 -5.6796 37.51077 1.93503 -13.52291 -16.73432 5.07134 -0.60515 -18.12464 -12.74444 1.29338 31.20908 96.91186 3.60424 4.21098 -15.4961 22.77627 -15.05477 45.52202 -84.71777 0.38855 -0.3492 46.52499 -5.84031 -1.16993 -19.72449 -10.86709 -2.59706 -2.1707 30.73889 9.6085 7.02572 -28.74265 -7.13815 3.97575 2.79262
0.10471 -6e-05 -0.02584 -134.53181 -27.3837 -5.82751 37.52329 1.77323 -13.38213 -16.68197 4.55797 -0.60669 -18.81753 -12.42973 1.8317 31.146 96.49755 3.86633 3.75752 -15.61974 22.76804 -14.82836 44.46389 -84.87832 0.50322 -0.37849 46.84383 -5.84152 -2.52479 -19.70916 -10.99584 -2.67657 -2.22467 31.24894 9.64831 8.11335 -28.86722 -7.08563 3.89106 2.74831
0.10975 0.00065 -0.02842 -134.90567 -27.22017 -5.92268 37.35224 1.67959 -13.21856 -16.76349 4.03248 -0.61207 -19.93813 -12.40389 2.81766 31.58922 95.11312 3.89499 3.09997 -15.73307 22.34923 -14.0707 42.66415 -84.80857 0.47603 -0.3657 46.3476 -5.66174 -2.88493 -19.94556 -10.95945 -2.57351 -2.16306 31.34582 9.46164 7.89838 -28.74251 -7.15968 3.96887 2.78849
0.11377 0.00139 -0.03096 -135.11358 -26.9566 -5.9958 37.11814 1.61067 -13.04115 -16.89716 3.50792 -0.61872 -21.22029 -12.48587 3.95634 32.22769 93.41335 3.83792 2.38605 -15.85483 21.77735 -13.10532 40.61316 -84.65798 0.38851 -0.39316 45.55143 -5.42103 -2.87925 -20.26677 -10.86046 -2.40791 -2.06161 31.28451 9.19315 7.21069 -28.53029 -7.27795 4.10373 2.85845
